<?xml version="1.0" encoding="UTF-8" standalone="no"?>
<!DOCTYPE svg PUBLIC "-//W3C//DTD SVG 1.1//EN" "http://www.w3.org/Graphics/SVG/1.1/DTD/svg11.dtd">
<svg width="100%" height="100%" viewBox="0 0 400 400" version="1.1" xmlns="http://www.w3.org/2000/svg" xmlns:xlink="http://www.w3.org/1999/xlink" xml:space="preserve" xmlns:serif="http://www.serif.com/" style="fill-rule:evenodd;clip-rule:evenodd;stroke-linejoin:round;stroke-miterlimit:2;">
    <rect id="Atom" x="0" y="0" width="400" height="400" style="fill:none;"/>
    <path d="M69.976,264.207C93.674,312.063 143.021,345 200,345C220.069,345 239.19,340.914 256.578,333.53C258.517,338.326 261.419,342.632 265.045,346.205C245.168,355.071 223.155,360 200,360C135.376,360 79.649,321.604 54.407,266.4C59.603,265.33 64.944,264.363 69.976,264.207ZM279.174,60.959C327.438,88.521 360,140.488 360,200C360,252.405 334.751,298.96 295.765,328.152C294.144,322.86 292.557,317.376 291.808,312.203C324.271,285.603 345,245.203 345,200C345,147.042 316.548,100.677 274.11,75.37C276.719,71.056 278.484,66.176 279.174,60.959ZM42.182,226.462C40.747,217.853 40,209.013 40,200C40,111.694 111.694,40 200,40C211.387,40 222.498,41.192 233.215,43.458C233.393,45.21 233.5,47.057 233.5,49C233.5,52.202 233.208,55.479 232.791,58.73C222.253,56.29 211.276,55 200,55C119.972,55 55,119.972 55,200C55,207.3 55.541,214.475 56.584,221.487C51.375,222.151 46.499,223.885 42.182,226.462Z" style="fill:rgb(102,202,236);"/>
    <path d="M84.765,287.979C111.272,322.632 153.044,345 200,345C220.069,345 239.19,340.914 256.578,333.53C258.517,338.326 261.419,342.632 265.045,346.205C245.168,355.071 223.155,360 200,360C147.2,360 100.339,334.369 71.192,294.881C76.211,293.52 80.815,291.14 84.765,287.979ZM291.361,289.5C307.919,289.5 321.361,302.943 321.361,319.5C321.361,336.057 307.919,349.5 291.361,349.5C274.804,349.5 261.361,336.057 261.361,319.5C261.361,302.943 274.804,289.5 291.361,289.5ZM279.174,60.959C327.438,88.521 360,140.488 360,200C360,238.312 346.505,273.497 324.014,301.057C321.48,296.585 318.055,292.684 313.98,289.596C333.406,264.926 345,233.806 345,200C345,147.042 316.548,100.677 274.11,75.37C276.719,71.056 278.484,66.176 279.174,60.959ZM61.363,228.685C77.921,228.685 91.363,242.127 91.363,258.685C91.363,275.242 77.921,288.685 61.363,288.685C44.806,288.685 31.363,275.242 31.363,258.685C31.363,242.127 44.806,228.685 61.363,228.685ZM42.182,226.462C40.747,217.853 40,209.013 40,200C40,111.694 111.694,40 200,40C202.678,40 205.341,40.066 207.988,40.197C205.873,44.735 204.641,49.766 204.511,55.069C203.013,55.023 201.509,55 200,55C119.972,55 55,119.972 55,200C55,207.3 55.541,214.475 56.584,221.487C51.375,222.151 46.499,223.885 42.182,226.462ZM242,26C258.557,26 272,39.443 272,56C272,72.557 258.557,86 242,86C225.443,86 212,72.557 212,56C212,39.443 225.443,26 242,26Z" style="fill:rgb(102,202,236);"/>
</svg>
