<?xml version="1.0" encoding="UTF-8" standalone="no"?>
<!DOCTYPE svg PUBLIC "-//W3C//DTD SVG 1.1//EN" "http://www.w3.org/Graphics/SVG/1.1/DTD/svg11.dtd">
<svg width="100%" height="100%" viewBox="0 0 1243 298" version="1.1" xmlns="http://www.w3.org/2000/svg" xmlns:xlink="http://www.w3.org/1999/xlink" xml:space="preserve" xmlns:serif="http://www.serif.com/" style="fill-rule:evenodd;clip-rule:evenodd;stroke-linejoin:round;stroke-miterlimit:2;">
    <g id="Artboard1" transform="matrix(1,0,0,1,-62,-600)">
        <rect x="62" y="600" width="1243" height="298" style="fill:none;"/>
        <clipPath id="_clip1">
            <rect x="62" y="600" width="1243" height="298"/>
        </clipPath>
        <g clip-path="url(#_clip1)">
            <rect id="suite" x="0" y="490.1" width="1366" height="385.9" style="fill:none;"/>
            <g>
                <path d="M464.1,839.8C466.6,841.7 469.8,842.6 473.6,842.6C477.5,842.6 480.5,841.8 482.7,840.2C484.9,838.6 486,836.5 486,833.9C486,831.3 485,829.1 483.1,827.4C481.2,825.7 477.9,824.3 473.2,823.2C460.9,820.3 454.8,814.9 454.8,807C454.8,802.7 456.6,799.1 460.1,796.3C463.6,793.5 468.2,792.1 473.9,792.1C479.6,792.1 484.2,793.7 487.9,796.9C491.5,800.1 493.3,803.9 493.1,808.4L493,808.6L485.9,808.6C485.9,805.3 484.8,802.7 482.7,800.8C480.6,798.9 477.6,797.9 473.8,797.9C470,797.9 467.1,798.7 465.2,800.3C463.2,801.9 462.2,804 462.2,806.6C462.2,809.2 463.3,811.2 465.4,812.8C467.5,814.4 471,815.8 475.8,817C487.6,820 493.5,825.5 493.5,833.7C493.5,838.1 491.7,841.7 488.1,844.3C484.5,846.9 479.8,848.3 473.9,848.3C470.2,848.3 466.8,847.7 463.7,846.4C460.6,845.1 458,843.2 456.1,840.7C454.2,838.2 453.3,835.3 453.3,832.1L453.4,831.9L460.5,831.9C460.4,835.3 461.6,837.9 464.1,839.8Z" style="fill:rgb(66,85,99);fill-rule:nonzero;"/>
                <path d="M510.1,847.5L502.8,847.5L502.8,806.8L509.4,806.8L509.9,812.1C512.7,808 516.8,806 522.3,806C527.8,806 531.5,808.5 533.4,813.5C536.2,808.5 540.4,806 545.8,806C550.1,806 553.4,807.4 555.7,810.3C558,813.2 559.2,817.4 559.2,823.1L559.2,847.4L551.8,847.4L551.8,823C551.8,819.1 551.1,816.3 549.8,814.5C548.5,812.7 546.5,811.9 543.8,811.9C541.1,811.9 539,812.8 537.5,814.5C535.9,816.2 535,818.4 534.7,821.2L534.7,847.3L527.2,847.3L527.2,822.9C527.2,819.1 526.5,816.3 525.1,814.6C523.7,812.8 521.7,811.9 518.9,811.9C514.6,811.9 511.6,813.7 510,817.2L510.1,847.5Z" style="fill:rgb(66,85,99);fill-rule:nonzero;"/>
                <path d="M581.6,848.4C577.4,848.4 574.1,847.3 571.9,845.2C569.7,843.1 568.6,840.1 568.6,836.2C568.6,832.3 570.2,829.3 573.3,827.1C576.4,824.9 580.7,823.8 586.2,823.8L594.2,823.8L594.2,819.8C594.2,817.4 593.5,815.5 592,814.1C590.5,812.7 588.6,812 586.1,812C583.6,812 581.6,812.6 580.1,813.8C578.6,815 577.8,816.5 577.8,818.2L570.7,818.2L570.6,818C570.5,814.9 571.9,812.2 574.9,809.8C577.9,807.4 581.7,806.2 586.3,806.2C590.9,806.2 594.6,807.4 597.4,809.8C600.2,812.2 601.5,815.5 601.5,819.9L601.5,839.5C601.5,842.6 601.8,845.4 602.5,847.7L594.9,847.7C594.4,845.1 594.1,843.1 594.1,841.6C592.7,843.7 590.8,845.3 588.6,846.6C586.4,847.8 584,848.4 581.6,848.4ZM576,836.3C576,838.1 576.5,839.6 577.7,840.6C578.8,841.6 580.6,842.1 583,842.1C585.4,842.1 587.7,841.4 589.9,840.1C592.1,838.8 593.5,837.2 594.2,835.4L594.2,828.8L585.9,828.8C582.9,828.8 580.6,829.5 578.8,831C576.9,832.4 576,834.2 576,836.3Z" style="fill:rgb(66,85,99);fill-rule:nonzero;"/>
                <path d="M619.7,847.6L612.3,847.6L612.3,806.9L618.9,806.9L619.6,812.8C622.1,808.3 625.4,806.1 629.7,806.1C630.7,806.1 631.6,806.2 632.5,806.5L631.5,813.4L627.7,813.2C623.9,813.2 621.2,815 619.6,818.5L619.6,847.6L619.7,847.6Z" style="fill:rgb(66,85,99);fill-rule:nonzero;"/>
                <path d="M641.6,797.1L649.1,797.1L649.1,806.9L656.8,806.9L656.8,812.4L649.1,812.4L649.1,837.1C649.1,840.6 650.5,842.3 653.4,842.3C654.3,842.3 655.2,842.1 656.2,841.8L657.2,846.9C655.9,847.9 654,848.4 651.6,848.4C648.5,848.4 646.1,847.5 644.3,845.6C642.6,843.7 641.7,840.9 641.7,837.1L641.7,812.4L635.3,812.4L635.3,807L641.7,807L641.7,797.1L641.6,797.1Z" style="fill:rgb(66,85,99);fill-rule:nonzero;"/>
                <rect x="666.6" y="839.9" width="7.4" height="7.6" style="fill:rgb(66,85,99);fill-rule:nonzero;"/>
            </g>
        </g>
    </g>
</svg>
