<?xml version="1.0" encoding="utf-8"?>
<!-- Generator: Adobe Illustrator 25.0.1, SVG Export Plug-In . SVG Version: 6.00 Build 0)  -->
<svg version="1.1" id="Layer_1" xmlns:serif="http://www.serif.com/"
	 xmlns="http://www.w3.org/2000/svg" xmlns:xlink="http://www.w3.org/1999/xlink" x="0px" y="0px" viewBox="0 0 1366 1366"
	 style="enable-background:new 0 0 1366 1366;" xml:space="preserve">
<style type="text/css">
	.st0{fill:none;}
	.st1{fill:#66CAEC;}
	.st2{fill:#425563;}
</style>
<rect id="suite" y="490.1" class="st0" width="1366" height="385.9"/>
<g>
	<path class="st1" d="M147,760.8c-9.3,0-17.7-2.3-25.2-6.9c-7.5-4.6-13.4-11-17.5-19.1c-4.2-8.2-6.3-17.4-6.3-27.5V703
		c0-10.5,2-20,6.1-28.4s9.7-15,17-19.8c7.3-4.8,15.2-7.2,23.6-7.2c13.3,0,23.8,4.5,31.6,13.6s11.7,21.4,11.7,37.1v6.8h-78v2.3
		c0,12.4,3.6,22.7,10.7,31c7.1,8.2,16,12.4,26.8,12.4c6.5,0,12.2-1.2,17.1-3.5s9.4-6.1,13.5-11.3l7.6,5.8
		C176.8,754.4,163.9,760.8,147,760.8L147,760.8z M144.7,657.8c-9.1,0-16.8,3.3-23,10s-10,15.6-11.4,26.9H176v-1.3
		c-0.3-10.5-3.3-19.1-9-25.7S153.9,657.8,144.7,657.8z"/>
	<rect x="212.9" y="603.6" class="st1" width="12.1" height="155.2"/>
	<path class="st1" d="M300.2,760.8c-9.3,0-17.7-2.3-25.2-6.9c-7.5-4.6-13.4-11-17.5-19.1c-4.2-8.2-6.3-17.4-6.3-27.5V703
		c0-10.5,2-20,6.1-28.4c4.1-8.4,9.7-15,17-19.8s15.2-7.2,23.6-7.2c13.3,0,23.8,4.5,31.6,13.6c7.8,9.1,11.7,21.4,11.7,37.1v6.8h-78
		v2.3c0,12.4,3.6,22.7,10.7,31c7.1,8.2,16,12.4,26.8,12.4c6.5,0,12.2-1.2,17.1-3.5c4.9-2.4,9.4-6.1,13.5-11.3l7.6,5.8
		C330,754.4,317.1,760.8,300.2,760.8L300.2,760.8z M298,657.8c-9.1,0-16.8,3.3-23,10s-10,15.6-11.4,26.9h65.6v-1.3
		c-0.3-10.5-3.3-19.1-9-25.7S307.1,657.8,298,657.8L298,657.8z"/>
	<path class="st1" d="M375.8,649.5l0.4,17.8c4-6.6,9.1-11.5,15.2-14.8s12.8-5,20.2-5c17.2,0,28.2,7.1,32.8,21.2
		c3.9-6.8,9.1-12,15.7-15.7c6.5-3.7,13.7-5.5,21.6-5.5c23.4,0,35.4,12.8,35.9,38.4v72.9h-12.1v-72c-0.1-9.8-2.2-17-6.3-21.7
		c-4.1-4.7-10.9-7.1-20.3-7.1c-8.7,0.1-16,2.9-22,8.4s-9.3,12.2-10,20.1v72.3h-12.1v-72.9c-0.1-9.4-2.3-16.3-6.6-21
		c-4.3-4.6-11-6.9-20.1-6.9c-7.6,0-14.1,2.2-19.6,6.5s-9.5,10.8-12.1,19.3v75h-12.1V649.5H375.8L375.8,649.5z"/>
	<path class="st1" d="M590.4,760.8c-9.3,0-17.7-2.3-25.2-6.9c-7.5-4.6-13.4-11-17.5-19.1c-4.2-8.2-6.3-17.4-6.3-27.5V703
		c0-10.5,2-20,6.1-28.4s9.7-15,17-19.8s15.2-7.2,23.6-7.2c13.3,0,23.8,4.5,31.6,13.6s11.7,21.4,11.7,37.1v6.8h-78v2.3
		c0,12.4,3.6,22.7,10.7,31c7.1,8.2,16,12.4,26.8,12.4c6.5,0,12.2-1.2,17.1-3.5c4.9-2.4,9.4-6.1,13.5-11.3l7.6,5.8
		C620.2,754.4,607.3,760.8,590.4,760.8L590.4,760.8z M588.2,657.8c-9.1,0-16.8,3.3-23,10s-10,15.6-11.4,26.9h65.6v-1.3
		c-0.3-10.5-3.3-19.1-9-25.7C604.8,661.1,597.3,657.8,588.2,657.8z"/>
	<path class="st1" d="M666.5,649.5l0.4,18.7c4.1-6.7,9.2-11.9,15.4-15.4c6.1-3.5,12.9-5.3,20.3-5.3c11.7,0,20.4,3.3,26.2,9.9
		c5.7,6.6,8.6,16.5,8.7,29.7v71.7h-12V687c-0.1-9.8-2.1-17-6.2-21.8c-4.1-4.8-10.6-7.2-19.5-7.2c-7.5,0-14.1,2.3-19.8,7
		c-5.8,4.7-10,11-12.8,18.9v74.9h-12V649.5H666.5L666.5,649.5z"/>
	<path class="st1" d="M787.4,621.5v28H810v9.9h-22.6v72.8c0,6.1,1.1,10.6,3.3,13.5c2.2,3,5.8,4.4,11,4.4c2,0,5.3-0.3,9.8-1l0.5,9.9
		c-3.2,1.1-7.5,1.7-12.9,1.7c-8.3,0-14.3-2.4-18.1-7.2s-5.7-11.9-5.7-21.3v-72.9h-20.1v-9.9h20.1v-28
		C775.3,621.5,787.4,621.5,787.4,621.5z"/>
	<path class="st1" d="M893.1,729.1c0-4.4-1.8-7.7-5.4-10c-3.6-2.3-9.6-4.3-17.9-6.1c-8.4-1.8-15.3-4-20.9-6.7
		c-12.3-5.9-18.4-14.5-18.4-25.8c0-9.4,4-17.3,11.9-23.6s18-9.5,30.3-9.5c13.1,0,23.6,3.2,31.7,9.7c8,6.5,12.1,14.8,12.1,25.2H892
		c0-4.7-1.8-8.6-5.3-11.8c-3.5-3.1-8.1-4.7-13.9-4.7c-5.4,0-9.8,1.2-13.2,3.7s-5.1,5.8-5.1,10c0,3.8,1.6,6.7,4.7,8.8
		c3.2,2.1,9.6,4.2,19.2,6.3s17.2,4.6,22.7,7.6c5.5,2.9,9.6,6.4,12.2,10.6c2.7,4.1,4,9.1,4,14.9c0,9.8-4.1,17.8-12.2,23.9
		c-8.1,6.1-18.8,9.1-32,9.1c-9,0-16.9-1.6-23.9-4.8s-12.5-7.7-16.4-13.3c-3.9-5.7-5.9-11.8-5.9-18.3h23.8c0.3,5.8,2.5,10.3,6.6,13.4
		c4,3.1,9.4,4.7,16.1,4.7c6.5,0,11.4-1.2,14.7-3.7S893.1,733.1,893.1,729.1z"/>
	<path class="st1" d="M1004.9,748.1c-7.2,8.5-17.4,12.7-30.7,12.7c-11.9,0-20.8-3.5-26.9-10.4c-6.1-6.9-9.1-17-9.1-30.1v-70.8h24.5
		V720c0,13.9,5.8,20.8,17.3,20.8c11.9,0,20-4.3,24.1-12.8v-78.5h24.5v109.3h-23.1L1004.9,748.1L1004.9,748.1z"/>
	<path class="st1" d="M1079.7,758.8h-24.5V649.5h24.5V758.8z M1053.6,621.1c0-3.8,1.2-6.9,3.6-9.4s5.8-3.7,10.3-3.7
		c4.4,0,7.9,1.2,10.3,3.7s3.6,5.6,3.6,9.4c0,3.7-1.2,6.8-3.6,9.2s-5.9,3.7-10.3,3.7s-7.9-1.2-10.3-3.7
		C1054.8,627.9,1053.6,624.8,1053.6,621.1z"/>
	<path class="st1" d="M1137.2,622.9v26.6h19.3v18.2h-19.3v61c0,4.2,0.8,7.2,2.5,9c1.6,1.9,4.6,2.8,8.8,2.8c2.8,0,5.7-0.3,8.6-1v19
		c-5.6,1.5-11,2.3-16.2,2.3c-18.9,0-28.3-10.4-28.3-31.2v-61.9h-18v-18.2h18v-26.6L1137.2,622.9L1137.2,622.9z"/>
	<path class="st1" d="M1223.3,760.8c-15.6,0-28.2-4.9-37.8-14.7c-9.7-9.8-14.5-22.8-14.5-39.1v-3c0-10.9,2.1-20.7,6.3-29.2
		c4.2-8.6,10.1-15.3,17.7-20.1s16.1-7.2,25.5-7.2c14.9,0,26.4,4.7,34.5,14.2s12.2,22.9,12.2,40.3v9.9h-71.4c0.7,9,3.8,16.2,9,21.4
		c5.3,5.3,11.9,7.9,19.9,7.9c11.2,0,20.4-4.5,27.5-13.6l13.2,12.6c-4.4,6.5-10.2,11.6-17.5,15.2
		C1240.6,759,1232.4,760.8,1223.3,760.8L1223.3,760.8z M1220.4,667.2c-6.7,0-12.2,2.4-16.3,7.1c-4.1,4.7-6.8,11.3-7.9,19.7h46.8
		v-1.8c-0.5-8.2-2.7-14.4-6.6-18.6C1232.5,669.3,1227.2,667.2,1220.4,667.2L1220.4,667.2z"/>
</g>
<g>
	<path class="st2" d="M126.7,825.6h-13.5v22h-7.4v-54.7h20.9c5.8,0,10.3,1.5,13.6,4.4c3.3,3,4.9,7,4.9,12s-1.6,9-4.9,11.9
		C137,824.1,132.5,825.6,126.7,825.6z M113.2,798.6v21.2h13.5c3.6,0,6.4-1,8.2-2.9c1.9-1.9,2.8-4.5,2.8-7.6s-0.9-5.7-2.8-7.7
		c-1.9-2-4.6-2.9-8.2-2.9L113.2,798.6L113.2,798.6z"/>
	<path class="st2" d="M151.4,827.7v-0.8c0-6.1,1.6-11.1,4.9-14.9c3.3-3.8,7.7-5.8,13.3-5.8s10,1.9,13.3,5.7s4.9,8.8,4.9,15v0.8
		c0,6.2-1.6,11.2-4.9,15c-3.3,3.8-7.7,5.7-13.3,5.7s-10-1.9-13.3-5.7C153.1,838.9,151.4,833.9,151.4,827.7z M158.9,826.9v0.8
		c0,4.5,0.9,8.1,2.8,10.8c1.9,2.7,4.5,4,8,4s6.2-1.4,8-4.1c1.9-2.7,2.8-6.3,2.8-10.8v-0.8c0-4.4-0.9-8-2.8-10.8
		c-1.9-2.7-4.6-4.1-8-4.1c-3.5,0-6.1,1.4-8,4.1C159.8,818.9,158.9,822.5,158.9,826.9z"/>
	<path class="st2" d="M200.6,806.9l6.7,25.8l0.9,4.9h0.2l1-4.9l8.1-25.8h5.9l8.1,25.8l1.2,5.5h0.2l1.1-5.5l6.4-25.8h7.3l-11.8,40.7
		h-6l-7.8-24.8l-1.7-6.9h-0.3l-1.6,6.9l-7.8,24.8h-6l-11.8-40.7H200.6z"/>
	<path class="st2" d="M272,848.4c-5.7,0-10.2-1.9-13.5-5.6c-3.4-3.7-5-8.6-5-14.7v-1.7c0-5.7,1.7-10.5,5.1-14.4
		c3.4-3.9,7.5-5.8,12.3-5.8c5.4,0,9.5,1.6,12.4,4.9c2.9,3.2,4.3,7.7,4.3,13.3v4.6h-26.4l-0.1,0.2c0.1,4,1.1,7.2,3,9.7s4.6,3.7,8,3.7
		c4.7,0,8.6-1.3,11.5-4l2.9,4.8l0,0C283,846.7,278.2,848.4,272,848.4z M280.1,822.3c0-3.1-0.8-5.5-2.4-7.4s-3.9-2.8-6.8-2.8
		c-2.4,0-4.6,1-6.3,3.1c-1.8,2.1-2.9,4.7-3.3,7.9l0.1,0.2h18.7L280.1,822.3L280.1,822.3z"/>
	<path class="st2" d="M303.3,847.6h-7.4v-40.7h6.6l0.7,5.9c2.5-4.5,5.8-6.7,10.1-6.7c1,0,1.9,0.1,2.8,0.4l-1,6.9l-3.8-0.2
		c-3.8,0-6.5,1.8-8.1,5.3L303.3,847.6L303.3,847.6z"/>
	<path class="st2" d="M333.3,847.5h-7.4v-35.2h-6.4v-5.5h6.4v-5.1c0-4.3,1.1-7.7,3.4-10.1c2.2-2.4,5.4-3.5,9.5-3.5
		c1.4,0,3.3,0.3,5.5,0.8l-0.9,5.6c-1.1-0.2-2.3-0.4-3.6-0.4c-4.3,0-6.4,2.5-6.4,7.6v5.1h8.4v5.5h-8.4v35.2L333.3,847.5L333.3,847.5z
		"/>
	<path class="st2" d="M363.3,848.4c-4.6,0-8.1-1.4-10.5-4.3s-3.6-7.3-3.6-13.2v-24h7.4v24c0,4.3,0.6,7.2,1.9,8.9
		c1.2,1.7,3.2,2.5,6,2.5c5.1,0,8.6-2,10.4-6.1V807h7.4v40.7h-6.6l-0.5-6C372.5,846.1,368.5,848.4,363.3,848.4z"/>
	<path class="st2" d="M401.1,788.9v58.6h-7.4v-58.6H401.1z"/>
	<path class="st2" d="M420.5,839.9v7.6h-7.4v-7.6H420.5z"/>
	<path class="st2" d="M464.1,839.8c2.5,1.9,5.7,2.8,9.5,2.8c3.9,0,6.9-0.8,9.1-2.4c2.2-1.6,3.3-3.7,3.3-6.3s-1-4.8-2.9-6.5
		s-5.2-3.1-9.9-4.2c-12.3-2.9-18.4-8.3-18.4-16.2c0-4.3,1.8-7.9,5.3-10.7s8.1-4.2,13.8-4.2c5.7,0,10.3,1.6,14,4.8
		c3.6,3.2,5.4,7,5.2,11.5l-0.1,0.2h-7.1c0-3.3-1.1-5.9-3.2-7.8c-2.1-1.9-5.1-2.9-8.9-2.9s-6.7,0.8-8.6,2.4c-2,1.6-3,3.7-3,6.3
		s1.1,4.6,3.2,6.2c2.1,1.6,5.6,3,10.4,4.2c11.8,3,17.7,8.5,17.7,16.7c0,4.4-1.8,8-5.4,10.6s-8.3,4-14.2,4c-3.7,0-7.1-0.6-10.2-1.9
		c-3.1-1.3-5.7-3.2-7.6-5.7s-2.8-5.4-2.8-8.6l0.1-0.2h7.1C460.4,835.3,461.6,837.9,464.1,839.8z"/>
	<path class="st2" d="M510.1,847.5h-7.3v-40.7h6.6l0.5,5.3c2.8-4.1,6.9-6.1,12.4-6.1s9.2,2.5,11.1,7.5c2.8-5,7-7.5,12.4-7.5
		c4.3,0,7.6,1.4,9.9,4.3c2.3,2.9,3.5,7.1,3.5,12.8v24.3h-7.4V823c0-3.9-0.7-6.7-2-8.5s-3.3-2.6-6-2.6s-4.8,0.9-6.3,2.6
		c-1.6,1.7-2.5,3.9-2.8,6.7v26.1h-7.5v-24.4c0-3.8-0.7-6.6-2.1-8.3c-1.4-1.8-3.4-2.7-6.2-2.7c-4.3,0-7.3,1.8-8.9,5.3L510.1,847.5
		L510.1,847.5z"/>
	<path class="st2" d="M581.6,848.4c-4.2,0-7.5-1.1-9.7-3.2c-2.2-2.1-3.3-5.1-3.3-9s1.6-6.9,4.7-9.1c3.1-2.2,7.4-3.3,12.9-3.3h8v-4
		c0-2.4-0.7-4.3-2.2-5.7s-3.4-2.1-5.9-2.1s-4.5,0.6-6,1.8s-2.3,2.7-2.3,4.4h-7.1l-0.1-0.2c-0.1-3.1,1.3-5.8,4.3-8.2
		s6.8-3.6,11.4-3.6c4.6,0,8.3,1.2,11.1,3.6c2.8,2.4,4.1,5.7,4.1,10.1v19.6c0,3.1,0.3,5.9,1,8.2h-7.6c-0.5-2.6-0.8-4.6-0.8-6.1
		c-1.4,2.1-3.3,3.7-5.5,5C586.4,847.8,584,848.4,581.6,848.4z M576,836.3L576,836.3c0,1.8,0.5,3.3,1.7,4.3c1.1,1,2.9,1.5,5.3,1.5
		c2.4,0,4.7-0.7,6.9-2s3.6-2.9,4.3-4.7v-6.6h-8.3c-3,0-5.3,0.7-7.1,2.2C576.9,832.4,576,834.2,576,836.3z"/>
	<path class="st2" d="M619.7,847.6h-7.4v-40.7h6.6l0.7,5.9c2.5-4.5,5.8-6.7,10.1-6.7c1,0,1.9,0.1,2.8,0.4l-1,6.9l-3.8-0.2
		c-3.8,0-6.5,1.8-8.1,5.3v29.1H619.7z"/>
	<path class="st2" d="M641.6,797.1h7.5v9.8h7.7v5.5h-7.7v24.7c0,3.5,1.4,5.2,4.3,5.2c0.9,0,1.8-0.2,2.8-0.5l1,5.1
		c-1.3,1-3.2,1.5-5.6,1.5c-3.1,0-5.5-0.9-7.3-2.8c-1.7-1.9-2.6-4.7-2.6-8.5v-24.7h-6.4V807h6.4v-9.9H641.6z"/>
	<path class="st2" d="M674,839.9v7.6h-7.4v-7.6H674z"/>
	<path class="st2" d="M750.9,792.8v54.7h-7.4v-24.2H717v24.2h-7.4v-54.7h7.4v24.7h26.6v-24.7H750.9z"/>
	<path class="st2" d="M785.6,823.8h-13.8v23.7h-7.4v-54.7h19.8c6,0,10.6,1.3,13.7,4c3.1,2.6,4.7,6.5,4.7,11.6
		c0,5.7-2.9,9.8-8.6,12.3c5.6,1.8,8.5,6.1,8.5,12.9v5.1c0,3.7,0.8,6.4,2.5,7.9v0.9h-7.6c-1.5-1.4-2.3-4.3-2.3-8.9v-5
		c0-3-0.9-5.4-2.6-7.2C790.8,824.7,788.5,823.8,785.6,823.8z M771.9,798.6V818h11.6c4.2,0,7.2-0.8,9-2.4c1.9-1.6,2.8-4,2.8-7.3
		c0-6.5-3.7-9.7-11.1-9.7H771.9z"/>
	<path class="st2" d="M845.1,839.8c2.5,1.9,5.7,2.8,9.5,2.8c3.9,0,6.9-0.8,9.1-2.4c2.2-1.6,3.3-3.7,3.3-6.3s-1-4.8-2.9-6.5
		s-5.2-3.1-9.9-4.2c-12.3-2.9-18.4-8.3-18.4-16.2c0-4.3,1.8-7.9,5.3-10.7s8.1-4.2,13.8-4.2s10.3,1.6,14,4.8c3.6,3.2,5.4,7,5.2,11.5
		l-0.1,0.2h-7.1c0-3.3-1.1-5.9-3.2-7.8c-2.1-1.9-5.1-2.9-8.9-2.9c-3.8,0-6.7,0.8-8.6,2.4s-3,3.7-3,6.3s1.1,4.6,3.2,6.2
		c2.1,1.6,5.6,3,10.4,4.2c11.8,3,17.7,8.5,17.7,16.7c0,4.4-1.8,8-5.4,10.6s-8.3,4-14.2,4c-3.7,0-7.1-0.6-10.2-1.9
		c-3.1-1.3-5.7-3.2-7.6-5.7c-1.9-2.5-2.8-5.4-2.8-8.6l0.1-0.2h7.1C841.4,835.3,842.6,837.9,845.1,839.8z"/>
	<path class="st2" d="M882,827.7v-0.8c0-6.1,1.6-11.1,4.9-14.9c3.3-3.8,7.7-5.8,13.3-5.8s10,1.9,13.3,5.7s4.9,8.8,4.9,15v0.8
		c0,6.2-1.6,11.2-4.9,15c-3.3,3.8-7.7,5.7-13.3,5.7s-10-1.9-13.3-5.7C883.6,838.9,882,833.9,882,827.7z M889.4,826.9v0.8
		c0,4.5,0.9,8.1,2.8,10.8c1.9,2.7,4.5,4,8,4s6.2-1.4,8-4.1c1.9-2.7,2.8-6.3,2.8-10.8v-0.8c0-4.4-0.9-8-2.8-10.8
		c-1.9-2.7-4.6-4.1-8-4.1s-6.1,1.4-8,4.1C890.3,818.9,889.4,822.5,889.4,826.9z"/>
	<path class="st2" d="M938,847.5h-7.4v-35.2h-6.4v-5.5h6.4v-5.1c0-4.3,1.1-7.7,3.4-10.1c2.2-2.4,5.4-3.5,9.5-3.5
		c1.4,0,3.3,0.3,5.5,0.8l-0.9,5.6c-1.1-0.2-2.3-0.4-3.6-0.4c-4.3,0-6.4,2.5-6.4,7.6v5.1h8.4v5.5H938V847.5z"/>
	<path class="st2" d="M956.4,797.1h7.5v9.8h7.7v5.5h-7.7v24.7c0,3.5,1.4,5.2,4.3,5.2c0.9,0,1.8-0.2,2.8-0.5l1,5.1
		c-1.3,1-3.2,1.5-5.6,1.5c-3.1,0-5.5-0.9-7.3-2.8c-1.7-1.9-2.6-4.7-2.6-8.5v-24.7H950V807h6.4V797.1z"/>
	<path class="st2" d="M984.3,806.9l6.7,25.8l0.9,4.9h0.2l1-4.9l8.1-25.8h5.9l8.1,25.8l1.2,5.5h0.2l1.1-5.5l6.4-25.8h7.3l-11.8,40.7
		h-6l-7.8-24.8l-1.7-6.9h-0.2l-1.6,6.9l-7.8,24.8h-6L977,806.9H984.3z"/>
	<path class="st2" d="M1050.4,848.4c-4.2,0-7.5-1.1-9.7-3.2c-2.2-2.1-3.3-5.1-3.3-9s1.6-6.9,4.7-9.1c3.1-2.2,7.4-3.3,12.9-3.3h8v-4
		c0-2.4-0.7-4.3-2.2-5.7s-3.4-2.1-5.9-2.1s-4.5,0.6-6,1.8s-2.3,2.7-2.3,4.4h-7.1l-0.1-0.2c-0.1-3.1,1.3-5.8,4.3-8.2
		s6.8-3.6,11.4-3.6s8.3,1.2,11.1,3.6c2.8,2.4,4.1,5.7,4.1,10.1v19.6c0,3.1,0.3,5.9,1,8.2h-7.6c-0.5-2.6-0.8-4.6-0.8-6.1
		c-1.4,2.1-3.3,3.7-5.5,5C1055.3,847.8,1052.9,848.4,1050.4,848.4z M1044.9,836.3L1044.9,836.3c0,1.8,0.5,3.3,1.7,4.3
		c1.1,1,2.9,1.5,5.3,1.5s4.7-0.7,6.9-2s3.6-2.9,4.3-4.7v-6.6h-8.3c-3,0-5.3,0.7-7.1,2.2C1045.8,832.4,1044.9,834.2,1044.9,836.3z"/>
	<path class="st2" d="M1088.6,847.6h-7.4v-40.7h6.6l0.7,5.9c2.5-4.5,5.8-6.7,10.1-6.7c1,0,1.9,0.1,2.8,0.4l-1,6.9l-3.8-0.2
		c-3.8,0-6.5,1.8-8.1,5.3v29.1H1088.6z"/>
	<path class="st2" d="M1124.4,848.4c-5.7,0-10.2-1.9-13.5-5.6c-3.4-3.7-5-8.6-5-14.7v-1.7c0-5.7,1.7-10.5,5.1-14.4s7.5-5.8,12.3-5.8
		c5.4,0,9.5,1.6,12.4,4.9c2.9,3.2,4.3,7.7,4.3,13.3v4.6h-26.4l-0.1,0.2c0.1,4,1.1,7.2,3,9.7s4.6,3.7,8,3.7c4.7,0,8.6-1.3,11.5-4
		l2.9,4.8l0,0C1135.4,846.7,1130.6,848.4,1124.4,848.4z M1132.5,822.3c0-3.1-0.8-5.5-2.4-7.4s-3.9-2.8-6.8-2.8c-2.4,0-4.6,1-6.3,3.1
		s-2.9,4.7-3.3,7.9l0.1,0.2h18.7L1132.5,822.3L1132.5,822.3z"/>
	<path class="st2" d="M1156.3,839.9v7.6h-7.4v-7.6H1156.3z"/>
</g>
</svg>
