<?xml version="1.0" encoding="UTF-8" standalone="no"?>
<!DOCTYPE svg PUBLIC "-//W3C//DTD SVG 1.1//EN" "http://www.w3.org/Graphics/SVG/1.1/DTD/svg11.dtd">
<svg width="100%" height="100%" viewBox="0 0 1243 298" version="1.1" xmlns="http://www.w3.org/2000/svg" xmlns:xlink="http://www.w3.org/1999/xlink" xml:space="preserve" xmlns:serif="http://www.serif.com/" style="fill-rule:evenodd;clip-rule:evenodd;stroke-linejoin:round;stroke-miterlimit:2;">
    <g id="Artboard1" transform="matrix(1,0,0,1,-62,-600)">
        <rect x="62" y="600" width="1243" height="298" style="fill:none;"/>
        <clipPath id="_clip1">
            <rect x="62" y="600" width="1243" height="298"/>
        </clipPath>
        <g clip-path="url(#_clip1)">
            <rect id="suite" x="0" y="490.1" width="1366" height="385.9" style="fill:none;"/>
            <g>
                <path d="M750.9,792.8L750.9,847.5L743.5,847.5L743.5,823.3L717,823.3L717,847.5L709.6,847.5L709.6,792.8L717,792.8L717,817.5L743.6,817.5L743.6,792.8L750.9,792.8Z" style="fill:rgb(66,85,99);fill-rule:nonzero;"/>
                <path d="M785.6,823.8L771.8,823.8L771.8,847.5L764.4,847.5L764.4,792.8L784.2,792.8C790.2,792.8 794.8,794.1 797.9,796.8C801,799.4 802.6,803.3 802.6,808.4C802.6,814.1 799.7,818.2 794,820.7C799.6,822.5 802.5,826.8 802.5,833.6L802.5,838.7C802.5,842.4 803.3,845.1 805,846.6L805,847.5L797.4,847.5C795.9,846.1 795.1,843.2 795.1,838.6L795.1,833.6C795.1,830.6 794.2,828.2 792.5,826.4C790.8,824.7 788.5,823.8 785.6,823.8ZM771.9,798.6L771.9,818L783.5,818C787.7,818 790.7,817.2 792.5,815.6C794.4,814 795.3,811.6 795.3,808.3C795.3,801.8 791.6,798.6 784.2,798.6L771.9,798.6Z" style="fill:rgb(66,85,99);fill-rule:nonzero;"/>
                <path d="M845.1,839.8C847.6,841.7 850.8,842.6 854.6,842.6C858.5,842.6 861.5,841.8 863.7,840.2C865.9,838.6 867,836.5 867,833.9C867,831.3 866,829.1 864.1,827.4C862.2,825.7 858.9,824.3 854.2,823.2C841.9,820.3 835.8,814.9 835.8,807C835.8,802.7 837.6,799.1 841.1,796.3C844.6,793.5 849.2,792.1 854.9,792.1C860.6,792.1 865.2,793.7 868.9,796.9C872.5,800.1 874.3,803.9 874.1,808.4L874,808.6L866.9,808.6C866.9,805.3 865.8,802.7 863.7,800.8C861.6,798.9 858.6,797.9 854.8,797.9C851,797.9 848.1,798.7 846.2,800.3C844.3,801.9 843.2,804 843.2,806.6C843.2,809.2 844.3,811.2 846.4,812.8C848.5,814.4 852,815.8 856.8,817C868.6,820 874.5,825.5 874.5,833.7C874.5,838.1 872.7,841.7 869.1,844.3C865.5,846.9 860.8,848.3 854.9,848.3C851.2,848.3 847.8,847.7 844.7,846.4C841.6,845.1 839,843.2 837.1,840.7C835.2,838.2 834.3,835.3 834.3,832.1L834.4,831.9L841.5,831.9C841.4,835.3 842.6,837.9 845.1,839.8Z" style="fill:rgb(66,85,99);fill-rule:nonzero;"/>
                <path d="M882,827.7L882,826.9C882,820.8 883.6,815.8 886.9,812C890.2,808.2 894.6,806.2 900.2,806.2C905.8,806.2 910.2,808.1 913.5,811.9C916.8,815.7 918.4,820.7 918.4,826.9L918.4,827.7C918.4,833.9 916.8,838.9 913.5,842.7C910.2,846.5 905.8,848.4 900.2,848.4C894.6,848.4 890.2,846.5 886.9,842.7C883.6,838.9 882,833.9 882,827.7ZM889.4,826.9L889.4,827.7C889.4,832.2 890.3,835.8 892.2,838.5C894.1,841.2 896.7,842.5 900.2,842.5C903.7,842.5 906.4,841.1 908.2,838.4C910.1,835.7 911,832.1 911,827.6L911,826.8C911,822.4 910.1,818.8 908.2,816C906.3,813.3 903.6,811.9 900.2,811.9C896.8,811.9 894.1,813.3 892.2,816C890.3,818.9 889.4,822.5 889.4,826.9Z" style="fill:rgb(66,85,99);fill-rule:nonzero;"/>
                <path d="M938,847.5L930.6,847.5L930.6,812.3L924.2,812.3L924.2,806.8L930.6,806.8L930.6,801.7C930.6,797.4 931.7,794 934,791.6C936.2,789.2 939.4,788.1 943.5,788.1C944.9,788.1 946.8,788.4 949,788.9L948.1,794.5C947,794.3 945.8,794.1 944.5,794.1C940.2,794.1 938.1,796.6 938.1,801.7L938.1,806.8L946.5,806.8L946.5,812.3L938,812.3L938,847.5Z" style="fill:rgb(66,85,99);fill-rule:nonzero;"/>
                <path d="M956.4,797.1L963.9,797.1L963.9,806.9L971.6,806.9L971.6,812.4L963.9,812.4L963.9,837.1C963.9,840.6 965.3,842.3 968.2,842.3C969.1,842.3 970,842.1 971,841.8L972,846.9C970.7,847.9 968.8,848.4 966.4,848.4C963.3,848.4 960.9,847.5 959.1,845.6C957.4,843.7 956.5,840.9 956.5,837.1L956.5,812.4L950,812.4L950,807L956.4,807L956.4,797.1Z" style="fill:rgb(66,85,99);fill-rule:nonzero;"/>
                <path d="M984.3,806.9L991,832.7L991.9,837.6L992.1,837.6L993.1,832.7L1001.2,806.9L1007.1,806.9L1015.2,832.7L1016.4,838.2L1016.6,838.2L1017.7,832.7L1024.1,806.9L1031.4,806.9L1019.6,847.6L1013.6,847.6L1005.8,822.8L1004.1,815.9L1003.9,815.9L1002.3,822.8L994.5,847.6L988.5,847.6L977,806.9L984.3,806.9Z" style="fill:rgb(66,85,99);fill-rule:nonzero;"/>
                <path d="M1050.4,848.4C1046.2,848.4 1042.9,847.3 1040.7,845.2C1038.5,843.1 1037.4,840.1 1037.4,836.2C1037.4,832.3 1039,829.3 1042.1,827.1C1045.2,824.9 1049.5,823.8 1055,823.8L1063,823.8L1063,819.8C1063,817.4 1062.3,815.5 1060.8,814.1C1059.3,812.7 1057.4,812 1054.9,812C1052.4,812 1050.4,812.6 1048.9,813.8C1047.4,815 1046.6,816.5 1046.6,818.2L1039.5,818.2L1039.4,818C1039.3,814.9 1040.7,812.2 1043.7,809.8C1046.7,807.4 1050.5,806.2 1055.1,806.2C1059.7,806.2 1063.4,807.4 1066.2,809.8C1069,812.2 1070.3,815.5 1070.3,819.9L1070.3,839.5C1070.3,842.6 1070.6,845.4 1071.3,847.7L1063.7,847.7C1063.2,845.1 1062.9,843.1 1062.9,841.6C1061.5,843.7 1059.6,845.3 1057.4,846.6C1055.3,847.8 1052.9,848.4 1050.4,848.4ZM1044.9,836.3C1044.9,838.1 1045.4,839.6 1046.6,840.6C1047.7,841.6 1049.5,842.1 1051.9,842.1C1054.3,842.1 1056.6,841.4 1058.8,840.1C1061,838.8 1062.4,837.2 1063.1,835.4L1063.1,828.8L1054.8,828.8C1051.8,828.8 1049.5,829.5 1047.7,831C1045.8,832.4 1044.9,834.2 1044.9,836.3Z" style="fill:rgb(66,85,99);fill-rule:nonzero;"/>
                <path d="M1088.6,847.6L1081.2,847.6L1081.2,806.9L1087.8,806.9L1088.5,812.8C1091,808.3 1094.3,806.1 1098.6,806.1C1099.6,806.1 1100.5,806.2 1101.4,806.5L1100.4,813.4L1096.6,813.2C1092.8,813.2 1090.1,815 1088.5,818.5L1088.5,847.6L1088.6,847.6Z" style="fill:rgb(66,85,99);fill-rule:nonzero;"/>
                <path d="M1124.4,848.4C1118.7,848.4 1114.2,846.5 1110.9,842.8C1107.5,839.1 1105.9,834.2 1105.9,828.1L1105.9,826.4C1105.9,820.7 1107.6,815.9 1111,812C1114.4,808.1 1118.5,806.2 1123.3,806.2C1128.7,806.2 1132.8,807.8 1135.7,811.1C1138.6,814.3 1140,818.8 1140,824.4L1140,829L1113.6,829L1113.5,829.2C1113.6,833.2 1114.6,836.4 1116.5,838.9C1118.4,841.4 1121.1,842.6 1124.5,842.6C1129.2,842.6 1133.1,841.3 1136,838.6L1138.9,843.4C1135.4,846.7 1130.6,848.4 1124.4,848.4ZM1132.5,822.3C1132.5,819.2 1131.7,816.8 1130.1,814.9C1128.5,813 1126.2,812.1 1123.3,812.1C1120.9,812.1 1118.7,813.1 1117,815.2C1115.3,817.3 1114.1,819.9 1113.7,823.1L1113.8,823.3L1132.5,823.3L1132.5,822.3Z" style="fill:rgb(66,85,99);fill-rule:nonzero;"/>
                <rect x="1148.9" y="839.9" width="7.4" height="7.6" style="fill:rgb(66,85,99);fill-rule:nonzero;"/>
            </g>
        </g>
    </g>
</svg>
