<?xml version="1.0" encoding="UTF-8" standalone="no"?>
<!DOCTYPE svg PUBLIC "-//W3C//DTD SVG 1.1//EN" "http://www.w3.org/Graphics/SVG/1.1/DTD/svg11.dtd">
<svg width="100%" height="100%" viewBox="0 0 1243 298" version="1.1" xmlns="http://www.w3.org/2000/svg" xmlns:xlink="http://www.w3.org/1999/xlink" xml:space="preserve" xmlns:serif="http://www.serif.com/" style="fill-rule:evenodd;clip-rule:evenodd;stroke-linejoin:round;stroke-miterlimit:2;">
    <g id="Artboard1" transform="matrix(1,0,0,1,-62,-600)">
        <rect x="62" y="600" width="1243" height="298" style="fill:none;"/>
        <clipPath id="_clip1">
            <rect x="62" y="600" width="1243" height="298"/>
        </clipPath>
        <g clip-path="url(#_clip1)">
            <rect id="suite" x="0" y="490.1" width="1366" height="385.9" style="fill:none;"/>
            <g>
                <path d="M126.7,825.6L113.2,825.6L113.2,847.6L105.8,847.6L105.8,792.9L126.7,792.9C132.5,792.9 137,794.4 140.3,797.3C143.6,800.3 145.2,804.3 145.2,809.3C145.2,814.3 143.6,818.3 140.3,821.2C137,824.1 132.5,825.6 126.7,825.6ZM113.2,798.6L113.2,819.8L126.7,819.8C130.3,819.8 133.1,818.8 134.9,816.9C136.8,815 137.7,812.4 137.7,809.3C137.7,806.2 136.8,803.6 134.9,801.6C133,799.6 130.3,798.7 126.7,798.7L113.2,798.6Z" style="fill:rgb(66,85,99);fill-rule:nonzero;"/>
                <path d="M151.4,827.7L151.4,826.9C151.4,820.8 153,815.8 156.3,812C159.6,808.2 164,806.2 169.6,806.2C175.2,806.2 179.6,808.1 182.9,811.9C186.2,815.7 187.8,820.7 187.8,826.9L187.8,827.7C187.8,833.9 186.2,838.9 182.9,842.7C179.6,846.5 175.2,848.4 169.6,848.4C164,848.4 159.6,846.5 156.3,842.7C153.1,838.9 151.4,833.9 151.4,827.7ZM158.9,826.9L158.9,827.7C158.9,832.2 159.8,835.8 161.7,838.5C163.6,841.2 166.2,842.5 169.7,842.5C173.2,842.5 175.9,841.1 177.7,838.4C179.6,835.7 180.5,832.1 180.5,827.6L180.5,826.8C180.5,822.4 179.6,818.8 177.7,816C175.8,813.3 173.1,811.9 169.7,811.9C166.2,811.9 163.6,813.3 161.7,816C159.8,818.9 158.9,822.5 158.9,826.9Z" style="fill:rgb(66,85,99);fill-rule:nonzero;"/>
                <path d="M200.6,806.9L207.3,832.7L208.2,837.6L208.4,837.6L209.4,832.7L217.5,806.9L223.4,806.9L231.5,832.7L232.7,838.2L232.9,838.2L234,832.7L240.4,806.9L247.7,806.9L235.9,847.6L229.9,847.6L222.1,822.8L220.4,815.9L220.1,815.9L218.5,822.8L210.7,847.6L204.7,847.6L192.9,806.9L200.6,806.9Z" style="fill:rgb(66,85,99);fill-rule:nonzero;"/>
                <path d="M272,848.4C266.3,848.4 261.8,846.5 258.5,842.8C255.1,839.1 253.5,834.2 253.5,828.1L253.5,826.4C253.5,820.7 255.2,815.9 258.6,812C262,808.1 266.1,806.2 270.9,806.2C276.3,806.2 280.4,807.8 283.3,811.1C286.2,814.3 287.6,818.8 287.6,824.4L287.6,829L261.2,829L261.1,829.2C261.2,833.2 262.2,836.4 264.1,838.9C266,841.4 268.7,842.6 272.1,842.6C276.8,842.6 280.7,841.3 283.6,838.6L286.5,843.4C283,846.7 278.2,848.4 272,848.4ZM280.1,822.3C280.1,819.2 279.3,816.8 277.7,814.9C276.1,813 273.8,812.1 270.9,812.1C268.5,812.1 266.3,813.1 264.6,815.2C262.8,817.3 261.7,819.9 261.3,823.1L261.4,823.3L280.1,823.3L280.1,822.3Z" style="fill:rgb(66,85,99);fill-rule:nonzero;"/>
                <path d="M303.3,847.6L295.9,847.6L295.9,806.9L302.5,806.9L303.2,812.8C305.7,808.3 309,806.1 313.3,806.1C314.3,806.1 315.2,806.2 316.1,806.5L315.1,813.4L311.3,813.2C307.5,813.2 304.8,815 303.2,818.5L303.3,847.6Z" style="fill:rgb(66,85,99);fill-rule:nonzero;"/>
                <path d="M333.4,847.5L325.9,847.5L325.9,812.3L319.5,812.3L319.5,806.8L325.9,806.8L325.9,801.7C325.9,797.4 327,794 329.3,791.6C331.5,789.2 334.7,788.1 338.8,788.1C340.2,788.1 342.1,788.4 344.3,788.9L343.4,794.5C342.3,794.3 341.1,794.1 339.8,794.1C335.5,794.1 333.4,796.6 333.4,801.7L333.4,806.8L341.8,806.8L341.8,812.3L333.4,812.3L333.4,847.5Z" style="fill:rgb(66,85,99);fill-rule:nonzero;"/>
                <path d="M363.3,848.4C358.7,848.4 355.2,847 352.8,844.1C350.4,841.2 349.2,836.8 349.2,830.9L349.2,806.9L356.6,806.9L356.6,830.9C356.6,835.2 357.2,838.1 358.5,839.8C359.7,841.5 361.7,842.3 364.5,842.3C369.6,842.3 373.1,840.3 374.9,836.2L374.9,807L382.3,807L382.3,847.7L375.7,847.7L375.2,841.7C372.5,846.1 368.5,848.4 363.3,848.4Z" style="fill:rgb(66,85,99);fill-rule:nonzero;"/>
                <rect x="393.7" y="788.9" width="7.4" height="58.6" style="fill:rgb(66,85,99);fill-rule:nonzero;"/>
                <rect x="413.1" y="839.9" width="7.4" height="7.6" style="fill:rgb(66,85,99);fill-rule:nonzero;"/>
            </g>
        </g>
    </g>
</svg>
