<?xml version="1.0" encoding="UTF-8" standalone="no"?>
<!DOCTYPE svg PUBLIC "-//W3C//DTD SVG 1.1//EN" "http://www.w3.org/Graphics/SVG/1.1/DTD/svg11.dtd">
<svg width="100%" height="100%" viewBox="0 0 1243 298" version="1.1" xmlns="http://www.w3.org/2000/svg" xmlns:xlink="http://www.w3.org/1999/xlink" xml:space="preserve" xmlns:serif="http://www.serif.com/" style="fill-rule:evenodd;clip-rule:evenodd;stroke-linejoin:round;stroke-miterlimit:2;">
    <g id="Artboard1" transform="matrix(1,0,0,1,-62,-600)">
        <rect x="62" y="600" width="1243" height="298" style="fill:none;"/>
        <clipPath id="_clip1">
            <rect x="62" y="600" width="1243" height="298"/>
        </clipPath>
        <g clip-path="url(#_clip1)">
            <rect id="suite" x="0" y="490.1" width="1366" height="385.9" style="fill:none;"/>
            <g>
                <path d="M147,760.8C137.7,760.8 129.3,758.5 121.8,753.9C114.3,749.3 108.4,742.9 104.3,734.8C100.1,726.6 98,717.4 98,707.3L98,703C98,692.5 100,683 104.1,674.6C108.2,666.2 113.8,659.6 121.1,654.8C128.4,650 136.3,647.6 144.7,647.6C158,647.6 168.5,652.1 176.3,661.2C184.1,670.3 188,682.6 188,698.3L188,705.1L110,705.1L110,707.4C110,719.8 113.6,730.1 120.7,738.4C127.8,746.6 136.7,750.8 147.5,750.8C154,750.8 159.7,749.6 164.6,747.3C169.5,745 174,741.2 178.1,736L185.7,741.8C176.8,754.4 163.9,760.8 147,760.8ZM144.7,657.8C135.6,657.8 127.9,661.1 121.7,667.8C115.5,674.5 111.7,683.4 110.3,694.7L176,694.7L176,693.4C175.7,682.9 172.7,674.3 167,667.7C161.3,661.1 153.9,657.8 144.7,657.8Z" style="fill:rgb(102,202,236);fill-rule:nonzero;"/>
                <rect x="212.9" y="603.6" width="12.1" height="155.2" style="fill:rgb(102,202,236);"/>
                <path d="M300.2,760.8C290.9,760.8 282.5,758.5 275,753.9C267.5,749.3 261.6,742.9 257.5,734.8C253.3,726.6 251.2,717.4 251.2,707.3L251.2,703C251.2,692.5 253.2,683 257.3,674.6C261.4,666.2 267,659.6 274.3,654.8C281.6,650 289.5,647.6 297.9,647.6C311.2,647.6 321.7,652.1 329.5,661.2C337.3,670.3 341.2,682.6 341.2,698.3L341.2,705.1L263.2,705.1L263.2,707.4C263.2,719.8 266.8,730.1 273.9,738.4C281,746.6 289.9,750.8 300.7,750.8C307.2,750.8 312.9,749.6 317.8,747.3C322.7,744.9 327.2,741.2 331.3,736L338.9,741.8C330,754.4 317.1,760.8 300.2,760.8ZM298,657.8C288.9,657.8 281.2,661.1 275,667.8C268.8,674.5 265,683.4 263.6,694.7L329.2,694.7L329.2,693.4C328.9,682.9 325.9,674.3 320.2,667.7C314.5,661.1 307.1,657.8 298,657.8Z" style="fill:rgb(102,202,236);fill-rule:nonzero;"/>
                <path d="M375.8,649.5L376.2,667.3C380.2,660.7 385.3,655.8 391.4,652.5C397.5,649.2 404.2,647.5 411.6,647.5C428.8,647.5 439.8,654.6 444.4,668.7C448.3,661.9 453.5,656.7 460.1,653C466.6,649.3 473.8,647.5 481.7,647.5C505.1,647.5 517.1,660.3 517.6,685.9L517.6,758.8L505.5,758.8L505.5,686.8C505.4,677 503.3,669.8 499.2,665.1C495.1,660.4 488.3,658 478.9,658C470.2,658.1 462.9,660.9 456.9,666.4C450.9,671.9 447.6,678.6 446.9,686.5L446.9,758.8L434.8,758.8L434.8,685.9C434.7,676.5 432.5,669.6 428.2,664.9C423.9,660.3 417.2,658 408.1,658C400.5,658 394,660.2 388.5,664.5C383,668.8 379,675.3 376.4,683.8L376.4,758.8L364.3,758.8L364.3,649.5L375.8,649.5Z" style="fill:rgb(102,202,236);fill-rule:nonzero;"/>
                <path d="M590.4,760.8C581.1,760.8 572.7,758.5 565.2,753.9C557.7,749.3 551.8,742.9 547.7,734.8C543.5,726.6 541.4,717.4 541.4,707.3L541.4,703C541.4,692.5 543.4,683 547.5,674.6C551.6,666.2 557.2,659.6 564.5,654.8C571.8,650 579.7,647.6 588.1,647.6C601.4,647.6 611.9,652.1 619.7,661.2C627.5,670.3 631.4,682.6 631.4,698.3L631.4,705.1L553.4,705.1L553.4,707.4C553.4,719.8 557,730.1 564.1,738.4C571.2,746.6 580.1,750.8 590.9,750.8C597.4,750.8 603.1,749.6 608,747.3C612.9,744.9 617.4,741.2 621.5,736L629.1,741.8C620.2,754.4 607.3,760.8 590.4,760.8ZM588.2,657.8C579.1,657.8 571.4,661.1 565.2,667.8C559,674.5 555.2,683.4 553.8,694.7L619.4,694.7L619.4,693.4C619.1,682.9 616.1,674.3 610.4,667.7C604.8,661.1 597.3,657.8 588.2,657.8Z" style="fill:rgb(102,202,236);fill-rule:nonzero;"/>
                <path d="M666.5,649.5L666.9,668.2C671,661.5 676.1,656.3 682.3,652.8C688.4,649.3 695.2,647.5 702.6,647.5C714.3,647.5 723,650.8 728.8,657.4C734.5,664 737.4,673.9 737.5,687.1L737.5,758.8L725.5,758.8L725.5,687C725.4,677.2 723.4,670 719.3,665.2C715.2,660.4 708.7,658 699.8,658C692.3,658 685.7,660.3 680,665C674.2,669.7 670,676 667.2,683.9L667.2,758.8L655.2,758.8L655.2,649.5L666.5,649.5Z" style="fill:rgb(102,202,236);fill-rule:nonzero;"/>
                <path d="M787.4,621.5L787.4,649.5L810,649.5L810,659.4L787.4,659.4L787.4,732.2C787.4,738.3 788.5,742.8 790.7,745.7C792.9,748.7 796.5,750.1 801.7,750.1C803.7,750.1 807,749.8 811.5,749.1L812,759C808.8,760.1 804.5,760.7 799.1,760.7C790.8,760.7 784.8,758.3 781,753.5C777.2,748.7 775.3,741.6 775.3,732.2L775.3,659.3L755.2,659.3L755.2,649.4L775.3,649.4L775.3,621.4C775.3,621.5 787.4,621.5 787.4,621.5Z" style="fill:rgb(102,202,236);fill-rule:nonzero;"/>
                <path d="M893.1,729.1C893.1,724.7 891.3,721.4 887.7,719.1C884.1,716.8 878.1,714.8 869.8,713C861.4,711.2 854.5,709 848.9,706.3C836.6,700.4 830.5,691.8 830.5,680.5C830.5,671.1 834.5,663.2 842.4,656.9C850.3,650.6 860.4,647.4 872.7,647.4C885.8,647.4 896.3,650.6 904.4,657.1C912.4,663.6 916.5,671.9 916.5,682.3L892,682.3C892,677.6 890.2,673.7 886.7,670.5C883.2,667.4 878.6,665.8 872.8,665.8C867.4,665.8 863,667 859.6,669.5C856.2,672 854.5,675.3 854.5,679.5C854.5,683.3 856.1,686.2 859.2,688.3C862.4,690.4 868.8,692.5 878.4,694.6C888,696.7 895.6,699.2 901.1,702.2C906.6,705.1 910.7,708.6 913.3,712.8C916,716.9 917.3,721.9 917.3,727.7C917.3,737.5 913.2,745.5 905.1,751.6C897,757.7 886.3,760.7 873.1,760.7C864.1,760.7 856.2,759.1 849.2,755.9C842.2,752.7 836.7,748.2 832.8,742.6C828.9,736.9 826.9,730.8 826.9,724.3L850.7,724.3C851,730.1 853.2,734.6 857.3,737.7C861.3,740.8 866.7,742.4 873.4,742.4C879.9,742.4 884.8,741.2 888.1,738.7C891.4,736.2 893.1,733.1 893.1,729.1Z" style="fill:rgb(102,202,236);fill-rule:nonzero;"/>
                <path d="M1004.9,748.1C997.7,756.6 987.5,760.8 974.2,760.8C962.3,760.8 953.4,757.3 947.3,750.4C941.2,743.5 938.2,733.4 938.2,720.3L938.2,649.5L962.7,649.5L962.7,720C962.7,733.9 968.5,740.8 980,740.8C991.9,740.8 1000,736.5 1004.1,728L1004.1,649.5L1028.6,649.5L1028.6,758.8L1005.5,758.8L1004.9,748.1Z" style="fill:rgb(102,202,236);fill-rule:nonzero;"/>
                <path d="M1079.7,758.8L1055.2,758.8L1055.2,649.5L1079.7,649.5L1079.7,758.8ZM1053.6,621.1C1053.6,617.3 1054.8,614.2 1057.2,611.7C1059.6,609.2 1063,608 1067.5,608C1071.9,608 1075.4,609.2 1077.8,611.7C1080.2,614.2 1081.4,617.3 1081.4,621.1C1081.4,624.8 1080.2,627.9 1077.8,630.3C1075.4,632.7 1071.9,634 1067.5,634C1063.1,634 1059.6,632.8 1057.2,630.3C1054.8,627.9 1053.6,624.8 1053.6,621.1Z" style="fill:rgb(102,202,236);fill-rule:nonzero;"/>
                <path d="M1137.2,622.9L1137.2,649.5L1156.5,649.5L1156.5,667.7L1137.2,667.7L1137.2,728.7C1137.2,732.9 1138,735.9 1139.7,737.7C1141.3,739.6 1144.3,740.5 1148.5,740.5C1151.3,740.5 1154.2,740.2 1157.1,739.5L1157.1,758.5C1151.5,760 1146.1,760.8 1140.9,760.8C1122,760.8 1112.6,750.4 1112.6,729.6L1112.6,667.7L1094.6,667.7L1094.6,649.5L1112.6,649.5L1112.6,622.9L1137.2,622.9Z" style="fill:rgb(102,202,236);fill-rule:nonzero;"/>
                <path d="M1223.3,760.8C1207.7,760.8 1195.1,755.9 1185.5,746.1C1175.8,736.3 1171,723.3 1171,707L1171,704C1171,693.1 1173.1,683.3 1177.3,674.8C1181.5,666.2 1187.4,659.5 1195,654.7C1202.6,649.9 1211.1,647.5 1220.5,647.5C1235.4,647.5 1246.9,652.2 1255,661.7C1263.1,671.2 1267.2,684.6 1267.2,702L1267.2,711.9L1195.8,711.9C1196.5,720.9 1199.6,728.1 1204.8,733.3C1210.1,738.6 1216.7,741.2 1224.7,741.2C1235.9,741.2 1245.1,736.7 1252.2,727.6L1265.4,740.2C1261,746.7 1255.2,751.8 1247.9,755.4C1240.6,759 1232.4,760.8 1223.3,760.8ZM1220.4,667.2C1213.7,667.2 1208.2,669.6 1204.1,674.3C1200,679 1197.3,685.6 1196.2,694L1243,694L1243,692.2C1242.5,684 1240.3,677.8 1236.4,673.6C1232.5,669.3 1227.2,667.2 1220.4,667.2Z" style="fill:rgb(102,202,236);fill-rule:nonzero;"/>
            </g>
        </g>
    </g>
</svg>
